<svg width="111" height="30" viewBox="0 0 111 30" fill="none" xmlns="http://www.w3.org/2000/svg">
<path d="M5.68078 18.4273C4.71896 18.4273 3.85453 17.7541 3.70437 16.8028C3.65683 16.5223 3.67105 16.2347 3.74604 15.9602C3.82102 15.6857 3.95497 15.4309 4.13853 15.2136C4.32209 14.9963 4.55083 14.8217 4.80879 14.7019C5.06676 14.5822 5.34772 14.5203 5.63208 14.5204H14.3403C14.9091 14.5206 15.4725 14.4085 15.9981 14.1908C16.5237 13.973 17.0013 13.6538 17.4036 13.2513C17.8059 12.8488 18.125 12.371 18.3427 11.845C18.5605 11.3191 18.6725 10.7554 18.6725 10.1861V3.87402H14.9876V9.71604C14.9862 10.0129 14.8674 10.2971 14.6571 10.5064C14.4467 10.7158 14.1621 10.8331 13.8654 10.8329H5.74876C4.74402 10.8309 3.75604 11.0905 2.88192 11.5863C2.0078 12.082 1.27761 12.7969 0.76309 13.6605C0.334927 14.384 0.0793866 15.1967 0.0163556 16.0353C-0.0427245 16.8098 0.058644 17.5883 0.314113 18.3218C0.569582 19.0554 0.973648 19.7282 1.50101 20.2983C2.02837 20.8683 2.66766 21.3233 3.37886 21.6346C4.09006 21.946 4.85783 22.1071 5.63411 22.1077H25.938V18.4273H5.68078Z" fill="#0D92B2"/>
<path d="M55.9345 24.2695C55.3682 24.2693 54.8145 24.4372 54.3435 24.7519C53.8725 25.0666 53.5054 25.514 53.2886 26.0375C53.0717 26.5611 53.0148 27.1372 53.1252 27.693C53.2356 28.2489 53.5082 28.7595 53.9086 29.1603C54.3089 29.5611 54.8191 29.8341 55.3745 29.9447C55.93 30.0554 56.5057 29.9987 57.0289 29.7819C57.5522 29.565 57.9994 29.1978 58.314 28.7266C58.6287 28.2554 58.7966 27.7014 58.7966 27.1347C58.7966 26.375 58.4951 25.6464 57.9584 25.1091C57.4217 24.5718 56.6937 24.2698 55.9345 24.2695Z" fill="#0D92B2"/>
<path d="M73.3031 10.7571V18.3637H63.5164C63.0374 18.3108 62.5946 18.0834 62.2724 17.7249C61.9502 17.3663 61.7711 16.9016 61.7693 16.4194V10.7571H58.0731V16.4194C58.0714 16.903 57.8914 17.369 57.5678 17.7281C57.2441 18.0872 56.7994 18.3142 56.3189 18.3657H56.3108H56.1647L56.1008 18.3708H48.4995C47.9817 18.3697 47.4853 18.1635 47.1189 17.7973C46.7526 17.431 46.546 16.9345 46.5444 16.4163H46.5322C46.5346 15.1752 46.1257 13.9684 45.3695 12.9846C45.2701 12.8493 45.1639 12.7217 45.0509 12.6019C44.9228 12.4595 44.7874 12.3239 44.6451 12.1957C44.6096 12.1633 44.5741 12.1318 44.5365 12.1013L44.428 12.0089C44.3894 11.9785 44.3519 11.948 44.3123 11.9196C44.2727 11.8912 44.2382 11.8627 44.1966 11.8343C44.155 11.8059 44.1205 11.7774 44.079 11.75C44.0374 11.7226 43.9958 11.6911 43.9531 11.6627C43.9105 11.6343 43.876 11.615 43.8375 11.5916C43.7512 11.5389 43.663 11.4901 43.5737 11.4363C43.4844 11.3825 43.4114 11.3531 43.3292 11.3124C43.175 11.2373 43.0146 11.1713 42.8523 11.1094C42.8483 11.1088 42.8442 11.1088 42.8401 11.1094C42.8193 11.1003 42.798 11.0925 42.7762 11.086C42.7367 11.0718 42.6971 11.0556 42.6565 11.0434C42.6159 11.0312 42.555 11.0129 42.5124 10.9987C42.4698 10.9845 42.4231 10.9723 42.3785 10.9601C42.3735 10.9592 42.3683 10.9592 42.3633 10.9601L42.2273 10.9246C42.1512 10.9063 42.0731 10.8891 41.994 10.8728C41.9585 10.8637 41.9179 10.8586 41.8783 10.8515C41.8387 10.8444 41.786 10.8353 41.7393 10.8281C41.72 10.8281 41.7008 10.821 41.6805 10.819L41.4907 10.7946C41.44 10.7896 41.3893 10.7855 41.3386 10.7825C41.2878 10.7794 41.2371 10.7733 41.1874 10.7693C41.0859 10.7642 40.9845 10.7621 40.883 10.7621H24.0409V0L20.3438 2.0509V14.4599H27.6011V16.795C27.6915 18.2238 28.322 19.5646 29.3644 20.5452C30.4068 21.5257 31.7831 22.0726 33.2138 22.0746H40.8718C40.9733 22.0746 41.0748 22.0746 41.1762 22.0675L41.3274 22.0563L41.4796 22.0421C41.5628 22.0309 41.645 22.0228 41.7282 22.0086C41.7748 22.0025 41.8225 21.9944 41.8672 21.9852C41.9118 21.9761 41.9473 21.9731 41.9828 21.9639C42.062 21.9497 42.1401 21.9314 42.2162 21.9121L42.3521 21.8776L42.3673 21.8725C42.412 21.8604 42.4566 21.8482 42.5013 21.834C42.5459 21.8197 42.6027 21.8055 42.6453 21.7893L42.7651 21.7477C42.7867 21.7409 42.808 21.7328 42.829 21.7233C42.9954 21.6642 43.1586 21.5964 43.318 21.5202C43.4002 21.4796 43.4803 21.437 43.5625 21.3954C43.6447 21.3537 43.7401 21.2938 43.8263 21.241C43.8649 21.2177 43.9024 21.1923 43.942 21.17L44.0678 21.0826C44.1084 21.0565 44.1477 21.0284 44.1855 20.9984C44.2271 20.9699 44.2636 20.9415 44.3011 20.9131C44.3387 20.8847 44.3783 20.8542 44.4168 20.8237L44.5254 20.7314C44.5629 20.7009 44.5984 20.6684 44.6339 20.6369L44.6836 20.5943C44.7161 20.6258 44.7496 20.6542 44.7851 20.6846C44.8937 20.7862 45.0053 20.8715 45.1209 20.9578C45.1798 20.9984 45.2386 21.041 45.2975 21.0826C45.337 21.1111 45.3776 21.1375 45.4172 21.1639C45.4973 21.2156 45.5785 21.2654 45.6627 21.3151C45.7033 21.3385 45.7459 21.3639 45.7885 21.3872C45.8748 21.4319 45.958 21.4776 46.0472 21.5202L46.1791 21.5812C46.2613 21.6187 46.3425 21.6522 46.4267 21.6827C46.4784 21.703 46.5282 21.7243 46.587 21.7416C46.6458 21.7588 46.6773 21.7761 46.724 21.7903C46.7706 21.8045 46.8163 21.8208 46.864 21.835C46.9117 21.8492 46.9594 21.8634 47.007 21.8756C47.0547 21.8878 47.1014 21.902 47.1491 21.9132C47.2262 21.9324 47.3023 21.9507 47.3804 21.9649C47.42 21.9741 47.4575 21.9792 47.4981 21.9863C47.5387 21.9934 47.5904 22.0035 47.6371 22.0096C47.7193 22.0238 47.8025 22.0319 47.8867 22.0431L48.0379 22.0573L48.189 22.0685C48.2905 22.0685 48.392 22.0756 48.4934 22.0756H56.1089C56.1728 22.0756 56.2347 22.0756 56.2986 22.0695C56.3625 22.0634 56.4001 22.0624 56.4518 22.0624H56.466C57.7494 21.9838 58.9671 21.467 59.9156 20.5983C60.8697 21.4715 62.0956 21.9886 63.3865 22.0624C63.5001 22.0715 63.6158 22.0756 63.7315 22.0756H71.3409C71.4423 22.0756 71.5438 22.0756 71.6452 22.0685L71.7213 22.0624H76.9972V10.7571H73.3031ZM40.8718 18.3718H39.2708V18.3596H35.5747V18.3718H32.9855C32.5751 18.3178 32.1918 18.1367 31.8893 17.854C31.5868 17.5713 31.3801 17.2011 31.2982 16.795V14.4599H40.8718C41.0065 14.4599 41.1407 14.4735 41.2726 14.5005C41.7477 14.5988 42.1695 14.8702 42.4561 15.2619C42.7427 15.6537 42.8737 16.138 42.8238 16.6209C42.7739 17.1039 42.5466 17.5511 42.186 17.8759C41.8253 18.2007 41.357 18.3799 40.8718 18.3789" fill="#0D92B2"/>
<path d="M52.2321 27.1347C52.2319 27.7011 52.0639 28.2548 51.7493 28.7257C51.4346 29.1965 50.9876 29.5635 50.4645 29.7801C49.9415 29.9967 49.3661 30.0533 48.811 29.9427C48.2558 29.832 47.7459 29.5592 47.3458 29.1586C46.9456 28.758 46.6731 28.2476 46.5627 27.6921C46.4524 27.1365 46.5091 26.5607 46.7258 26.0374C46.9424 25.5141 47.3093 25.0668 47.7799 24.7522C48.2506 24.4375 48.8039 24.2695 49.37 24.2695C49.7459 24.2695 50.1182 24.3436 50.4655 24.4876C50.8128 24.6316 51.1284 24.8427 51.3942 25.1088C51.6599 25.3748 51.8707 25.6907 52.0145 26.0383C52.1583 26.3859 52.2322 26.7585 52.2321 27.1347" fill="#0D92B2"/>
<path d="M70.3904 27.1347C70.3904 27.7014 70.2225 28.2553 69.9079 28.7265C69.5932 29.1977 69.1461 29.5649 68.6229 29.7818C68.0997 29.9986 67.524 30.0554 66.9686 29.9448C66.4132 29.8343 65.9031 29.5614 65.5027 29.1607C65.1022 28.76 64.8296 28.2495 64.7191 27.6937C64.6086 27.1379 64.6653 26.5618 64.882 26.0382C65.0987 25.5147 65.4657 25.0672 65.9365 24.7524C66.4074 24.4376 66.9609 24.2695 67.5272 24.2695C68.2866 24.2695 69.0148 24.5714 69.5518 25.1087C70.0887 25.646 70.3904 26.3748 70.3904 27.1347" fill="#0D92B2"/>
<path d="M12.3259 5.80263C12.3259 6.36911 12.158 6.92286 11.8435 7.39387C11.529 7.86488 11.082 8.23198 10.559 8.44876C10.036 8.66554 9.46053 8.72226 8.90533 8.61175C8.35013 8.50123 7.84014 8.22845 7.43987 7.82789C7.03959 7.42733 6.767 6.91699 6.65656 6.3614C6.54612 5.80581 6.6028 5.22992 6.81943 4.70657C7.03606 4.18321 7.40291 3.73589 7.87359 3.42117C8.34426 3.10646 8.89763 2.93848 9.46371 2.93848C10.2228 2.93848 10.9508 3.24024 11.4875 3.77737C12.0243 4.3145 12.3259 5.04301 12.3259 5.80263" fill="#0D92B2"/>
<path d="M111 8.96578C111.001 7.22825 110.496 5.52797 109.548 4.07191C108.6 2.61585 107.249 1.46681 105.66 0.764634C104.071 0.0624612 102.311 -0.162552 100.597 0.116979C98.8817 0.39651 97.285 1.16853 96.001 2.33907C94.3528 0.832787 92.2003 -0.00169675 89.9676 2.5903e-06H81.0011V8.96578C80.9994 11.1986 81.8339 13.3511 83.3402 14.9992C81.7866 16.7027 80.9493 18.9394 81.0024 21.2444C81.0554 23.5493 81.9947 25.7451 83.625 27.3753C85.2553 29.0055 87.4512 29.9447 89.7561 29.9976C92.061 30.0505 94.2976 29.2131 96.001 27.6594C97.6492 29.1653 99.8017 29.9993 102.034 29.9969H111V21.0327C111.002 18.7999 110.167 16.6473 108.661 14.9992C110.167 13.3511 111.002 11.1986 111 8.96578V8.96578ZM102.034 5.86464C102.648 5.86464 103.247 6.04652 103.757 6.38728C104.267 6.72803 104.665 7.21237 104.899 7.77902C105.134 8.34568 105.196 8.96922 105.076 9.57079C104.956 10.1723 104.661 10.7249 104.227 11.1586C103.793 11.5923 103.241 11.8877 102.639 12.0073C102.038 12.127 101.414 12.0656 100.848 11.8309C100.281 11.5961 99.7966 11.1987 99.4559 10.6887C99.1151 10.1787 98.9332 9.57913 98.9332 8.96578C98.9341 8.14356 99.2611 7.35526 99.8425 6.77387C100.424 6.19247 101.212 5.86548 102.034 5.86464V5.86464ZM86.8665 5.86464H89.9676C90.5809 5.86464 91.1805 6.04652 91.6905 6.38728C92.2004 6.72803 92.5979 7.21237 92.8326 7.77902C93.0673 8.34568 93.1288 8.96922 93.0091 9.57079C92.8894 10.1723 92.5941 10.7249 92.1604 11.1586C91.7267 11.5923 91.1741 11.8877 90.5726 12.0073C89.971 12.127 89.3475 12.0656 88.7808 11.8309C88.2142 11.5961 87.7299 11.1987 87.3891 10.6887C87.0484 10.1787 86.8665 9.57913 86.8665 8.96578V5.86464ZM89.9676 24.1331C89.3542 24.1332 88.7545 23.9514 88.2444 23.6108C87.7343 23.2701 87.3367 22.7857 87.1019 22.219C86.8671 21.6523 86.8056 21.0287 86.9252 20.4271C87.0449 19.8255 87.3402 19.2728 87.774 18.8391C88.2077 18.4053 88.7604 18.11 89.362 17.9903C89.9636 17.8707 90.5872 17.9322 91.1539 18.167C91.7206 18.4018 92.2049 18.7994 92.5456 19.3095C92.8863 19.8196 93.0681 20.4193 93.0679 21.0327C93.0669 21.8546 92.7399 22.6426 92.1587 23.2238C91.5775 23.805 90.7895 24.132 89.9676 24.1331V24.1331ZM105.135 24.1331H102.034C101.421 24.1332 100.821 23.9514 100.311 23.6108C99.8011 23.2701 99.4035 22.7857 99.1687 22.219C98.9338 21.6523 98.8724 21.0287 98.992 20.4271C99.1116 19.8255 99.407 19.2728 99.8407 18.8391C100.274 18.4053 100.827 18.11 101.429 17.9903C102.03 17.8707 102.654 17.9322 103.221 18.167C103.787 18.4018 104.272 18.7994 104.612 19.3095C104.953 19.8196 105.135 20.4193 105.135 21.0327V24.1331Z" fill="#0D92B2"/>
</svg>
